<?xml version="1.0" encoding="utf-8"?>
<!-- Generator: Adobe Illustrator 27.4.0, SVG Export Plug-In . SVG Version: 6.00 Build 0)  -->
<svg version="1.1" id="レイヤー_1" xmlns="http://www.w3.org/2000/svg" xmlns:xlink="http://www.w3.org/1999/xlink" x="0px"
	 y="0px" viewBox="0 0 640 640" style="enable-background:new 0 0 640 640;" xml:space="preserve">
<style type="text/css">
	.st0{fill:#06C755;}
	.st1{fill:#FFFFFF;}
</style>
<g>
	<path class="st0" d="M407.9,480H232.1c-39.8,0-72.1-32.3-72.1-72.1V232.1c0-39.8,32.3-72.1,72.1-72.1h175.7
		c39.8,0,72.1,32.3,72.1,72.1v175.7C480,447.7,447.7,480,407.9,480z"/>
	<g>
		<g>
			<g>
				<path class="st1" d="M426.7,304.9c0-47.7-47.9-86.6-106.7-86.6c-58.8,0-106.7,38.8-106.7,86.6c0,42.8,38,78.6,89.2,85.4
					c3.5,0.8,8.2,2.3,9.4,5.3c1.1,2.7,0.7,6.9,0.3,9.6c0,0-1.3,7.5-1.5,9.1c-0.5,2.7-2.1,10.5,9.2,5.8c11.4-4.8,61.4-36.2,83.8-61.9
					h0C419.2,341.2,426.7,324,426.7,304.9z"/>
			</g>
			<g>
				<path class="st0" d="M391.2,332.5h-29.9h0c-1.1,0-2-0.9-2-2v0v0v-46.5v0v0c0-1.1,0.9-2,2-2h0h29.9c1.1,0,2,0.9,2,2v7.6
					c0,1.1-0.9,2-2,2h-20.4v7.9h20.4c1.1,0,2,0.9,2,2v7.6c0,1.1-0.9,2-2,2h-20.4v7.9h20.4c1.1,0,2,0.9,2,2v7.6
					C393.2,331.6,392.3,332.5,391.2,332.5z"/>
				<path class="st0" d="M280.3,332.5c1.1,0,2-0.9,2-2v-7.6c0-1.1-0.9-2-2-2h-20.4v-37c0-1.1-0.9-2-2-2h-7.6c-1.1,0-2,0.9-2,2v46.5
					v0v0c0,1.1,0.9,2,2,2h0H280.3z"/>
				<path class="st0" d="M298.3,281.9h-7.6c-1.1,0-2,0.9-2,2v46.6c0,1.1,0.9,2,2,2h7.6c1.1,0,2-0.9,2-2v-46.6
					C300.4,282.8,299.5,281.9,298.3,281.9z"/>
				<path class="st0" d="M349.8,281.9h-7.6c-1.1,0-2,0.9-2,2v27.7l-21.3-28.8c0-0.1-0.1-0.1-0.2-0.2c0,0,0,0,0,0
					c0,0-0.1-0.1-0.1-0.1c0,0,0,0,0,0c0,0-0.1-0.1-0.1-0.1c0,0,0,0-0.1,0c0,0-0.1-0.1-0.1-0.1c0,0,0,0-0.1,0c0,0-0.1,0-0.1-0.1
					c0,0,0,0-0.1,0c0,0-0.1,0-0.1-0.1c0,0,0,0-0.1,0c0,0-0.1,0-0.1,0c0,0,0,0-0.1,0c0,0-0.1,0-0.1,0c0,0-0.1,0-0.1,0
					c0,0-0.1,0-0.1,0c0,0-0.1,0-0.1,0c0,0,0,0-0.1,0h-7.5c-1.1,0-2,0.9-2,2v46.6c0,1.1,0.9,2,2,2h7.6c1.1,0,2-0.9,2-2v-27.6
					l21.3,28.8c0.1,0.2,0.3,0.4,0.5,0.5c0,0,0,0,0,0c0,0,0.1,0.1,0.1,0.1c0,0,0,0,0.1,0c0,0,0.1,0,0.1,0c0,0,0.1,0,0.1,0
					c0,0,0,0,0.1,0c0,0,0.1,0,0.1,0c0,0,0,0,0,0c0.2,0,0.3,0.1,0.5,0.1h7.5c1.1,0,2-0.9,2-2v-46.6
					C351.9,282.8,351,281.9,349.8,281.9z"/>
			</g>
		</g>
	</g>
</g>
</svg>
