<?xml version="1.0" encoding="utf-8"?>
<!-- Generator: Adobe Illustrator 27.4.0, SVG Export Plug-In . SVG Version: 6.00 Build 0)  -->
<svg version="1.1" id="レイヤー_1" xmlns="http://www.w3.org/2000/svg" xmlns:xlink="http://www.w3.org/1999/xlink" x="0px"
	 y="0px" viewBox="0 0 320 320" style="enable-background:new 0 0 320 320;" xml:space="preserve">
<style type="text/css">
	.st0{fill:#06C755;}
	.st1{fill:#FFFFFF;}
</style>
<g>
	<path class="st0" d="M247.9,320H72.1C32.3,320,0,287.7,0,247.9V72.1C0,32.3,32.3,0,72.1,0h175.7C287.7,0,320,32.3,320,72.1v175.7
		C320,287.7,287.7,320,247.9,320z"/>
	<g>
		<g>
			<g>
				<path class="st1" d="M266.7,144.9c0-47.7-47.9-86.6-106.7-86.6c-58.8,0-106.7,38.8-106.7,86.6c0,42.8,38,78.6,89.2,85.4
					c3.5,0.8,8.2,2.3,9.4,5.3c1.1,2.7,0.7,6.9,0.3,9.6c0,0-1.3,7.5-1.5,9.1c-0.5,2.7-2.1,10.5,9.2,5.8c11.4-4.8,61.4-36.2,83.8-61.9
					h0C259.2,181.2,266.7,164,266.7,144.9z"/>
			</g>
			<g>
				<path class="st0" d="M231.2,172.5h-29.9h0c-1.1,0-2-0.9-2-2v0v0v-46.5v0v0c0-1.1,0.9-2,2-2h0h29.9c1.1,0,2,0.9,2,2v7.6
					c0,1.1-0.9,2-2,2h-20.4v7.9h20.4c1.1,0,2,0.9,2,2v7.6c0,1.1-0.9,2-2,2h-20.4v7.9h20.4c1.1,0,2,0.9,2,2v7.6
					C233.2,171.6,232.3,172.5,231.2,172.5z"/>
				<path class="st0" d="M120.3,172.5c1.1,0,2-0.9,2-2v-7.6c0-1.1-0.9-2-2-2H99.9v-37c0-1.1-0.9-2-2-2h-7.6c-1.1,0-2,0.9-2,2v46.5v0
					v0c0,1.1,0.9,2,2,2h0H120.3z"/>
				<path class="st0" d="M138.3,121.9h-7.6c-1.1,0-2,0.9-2,2v46.6c0,1.1,0.9,2,2,2h7.6c1.1,0,2-0.9,2-2v-46.6
					C140.4,122.8,139.5,121.9,138.3,121.9z"/>
				<path class="st0" d="M189.8,121.9h-7.6c-1.1,0-2,0.9-2,2v27.7l-21.3-28.8c0-0.1-0.1-0.1-0.2-0.2c0,0,0,0,0,0
					c0,0-0.1-0.1-0.1-0.1c0,0,0,0,0,0c0,0-0.1-0.1-0.1-0.1c0,0,0,0-0.1,0c0,0-0.1-0.1-0.1-0.1c0,0,0,0-0.1,0c0,0-0.1,0-0.1-0.1
					c0,0,0,0-0.1,0c0,0-0.1,0-0.1-0.1c0,0,0,0-0.1,0c0,0-0.1,0-0.1,0c0,0,0,0-0.1,0c0,0-0.1,0-0.1,0c0,0-0.1,0-0.1,0
					c0,0-0.1,0-0.1,0c0,0-0.1,0-0.1,0c0,0,0,0-0.1,0h-7.5c-1.1,0-2,0.9-2,2v46.6c0,1.1,0.9,2,2,2h7.6c1.1,0,2-0.9,2-2v-27.6
					l21.3,28.8c0.1,0.2,0.3,0.4,0.5,0.5c0,0,0,0,0,0c0,0,0.1,0.1,0.1,0.1c0,0,0,0,0.1,0c0,0,0.1,0,0.1,0c0,0,0.1,0,0.1,0
					c0,0,0,0,0.1,0c0,0,0.1,0,0.1,0c0,0,0,0,0,0c0.2,0,0.3,0.1,0.5,0.1h7.5c1.1,0,2-0.9,2-2v-46.6
					C191.9,122.8,191,121.9,189.8,121.9z"/>
			</g>
		</g>
	</g>
</g>
</svg>
