<?xml version="1.0" encoding="UTF-8" standalone="no"?>
<svg
   xmlns:dc="http://purl.org/dc/elements/1.1/"
   xmlns:cc="http://creativecommons.org/ns#"
   xmlns:rdf="http://www.w3.org/1999/02/22-rdf-syntax-ns#"
   xmlns:svg="http://www.w3.org/2000/svg"
   xmlns="http://www.w3.org/2000/svg"
   version="1.1"
   id="svg841"
   x="0px"
   y="0px"
   viewBox="0 0 449.5 224"
   xml:space="preserve"
   width="449.5"
   height="224"><metadata
   id="metadata40"><rdf:RDF><cc:Work
       rdf:about=""><dc:format>image/svg+xml</dc:format><dc:type
         rdf:resource="http://purl.org/dc/dcmitype/StillImage" /><dc:title></dc:title></cc:Work></rdf:RDF></metadata>

<defs
   id="defs5">
	
		
</defs>
<g
   id="layer3"
   transform="translate(-31.2,-144)"
   style="fill:#ffffff;fill-opacity:1">
	
		<path
   id="path1687"
   d="M 102,144 C 83.4,144 65.6,151.4 52.5,164.5 39.4,177.6 32,195.4 32,214 c 0,18.6 7.4,36.4 20.5,49.5 13.1,13.1 30.9,20.5 49.5,20.5 h 28 c 5,0 9.6,-2.7 12.1,-7 2.5,-4.3 2.5,-9.7 0,-14 -2.5,-4.3 -7.1,-7 -12.1,-7 H 102 C 90.9,256 80.2,251.6 72.3,243.7 64.4,235.8 60,225.1 60,214 60,202.9 64.4,192.2 72.3,184.3 80.2,176.4 90.9,172 102,172 h 56 c 3.7,0 7.3,1.5 9.9,4.1 2.6,2.6 4.1,6.2 4.1,9.9 0,3.7 -1.5,7.3 -4.1,9.9 -2.6,2.6 -6.2,4.1 -9.9,4.1 h -28 -28 c -5,0 -9.6,2.7 -12.1,7 -2.5,4.3 -2.5,9.7 0,14 2.5,4.3 7.1,7 12.1,7 h 28 c 11.1,0 21.8,4.4 29.7,12.3 7.9,7.9 12.3,18.6 12.3,29.7 0,11.1 -4.4,21.8 -12.3,29.7 -7.9,7.9 -18.6,12.3 -29.7,12.3 H 46 c -5,0 -9.6,2.7 -12.1,7 -2.5,4.3 -2.5,9.7 0,14 2.5,4.3 7.1,7 12.1,7 h 84 c 16.3,0 32.1,-5.7 44.7,-16.1 1.4,2.9 3.3,5.6 5.5,7.9 5.3,5.3 12.4,8.2 19.8,8.2 h 70 c 18.1,0 35.5,-7 48.5,-19.6 1.7,2.6 3.6,5.1 5.8,7.3 7.9,7.9 18.6,12.3 29.7,12.3 11.1,0 21.8,-4.4 29.7,-12.3 7.9,-7.9 12.3,-18.6 12.3,-29.7 v -14 h 42 c 15,0 28.9,-8 36.4,-21 7.5,-13 7.5,-29 0,-42 C 466.9,208 453,200 438,200 h -70 v 28 h 70 c 5,0 9.6,2.7 12.1,7 2.5,4.3 2.5,9.7 0,14 -2.5,4.3 -7.1,7 -12.1,7 h -70 v 28 14 c 0,3.7 -1.5,7.3 -4.1,9.9 -2.6,2.6 -6.2,4.1 -9.9,4.1 -3.7,0 -7.3,-1.5 -9.9,-4.1 -2.6,-2.6 -4.1,-6.2 -4.1,-9.9 v -98 c 0,-7.4 2.9,-14.5 8.2,-19.8 5.3,-5.3 12.4,-8.2 19.8,-8.2 h 98 c 5,0 9.6,-2.7 12.1,-7 2.5,-4.3 2.5,-9.7 0,-14 -2.5,-4.3 -7.1,-7 -12.1,-7 h -98 c -14.9,0 -29.1,5.9 -39.6,16.4 -2.2,2.2 -4.2,4.6 -6,7.2 -0.9,-1 -1.9,-2.1 -2.9,-3.1 C 306.4,151.4 288.6,144 270,144 h -42 c -14.1,0 -27.6,5.3 -38,14.8 -0.7,-0.9 -1.5,-1.7 -2.3,-2.5 C 179.8,148.4 169.1,144 158,144 Z m 126,28 h 42 c 11.1,0 21.8,4.4 29.7,12.3 7.9,7.9 12.3,18.6 12.3,29.7 0,0.1 0,0.2 0,0.2 -0.1,10.2 -3.9,20.1 -10.7,27.8 6.9,7.7 10.7,17.7 10.7,28 0,11.1 -4.4,21.8 -12.3,29.7 -7.9,7.9 -18.6,12.3 -29.7,12.3 H 200 V 200 c 0,-7.4 2.9,-14.5 8.2,-19.8 5.3,-5.3 12.4,-8.2 19.8,-8.2 z m 0,28 v 84 h 28 14 c 5,0 9.6,-2.7 12.1,-7 2.5,-4.3 2.5,-9.7 0,-14 -2.5,-4.3 -7.1,-7 -12.1,-7 h -14 c -5,0 -9.6,-2.7 -12.1,-7 -2.5,-4.3 -2.5,-9.7 0,-14 2.5,-4.3 7.1,-7 12.1,-7 h 14 c 5,0 9.6,-2.7 12.1,-7 2.5,-4.3 2.5,-9.7 0,-14 -2.5,-4.3 -7.1,-7 -12.1,-7 h -14 z"
   style="fill:#ffffff;fill-opacity:1" />
	<g
   id="text5258"
   style="fill:#ffffff;fill-opacity:1">
		<path
   id="path32089"
   d="m 38.5,367.8 c 5.9,0 6.9,-1.5 6.9,-4.8 0,-3 -1,-4.1 -4.1,-4.5 -1.6,-0.2 -4.1,-0.4 -5.2,-0.5 -1.2,-0.2 -1.5,-0.2 -1.5,-1.4 0,-0.2 0,-0.4 0.1,-0.5 0.4,-0.8 1.2,-0.9 3.5,-0.9 3.1,0 3.2,0.5 3.2,2.1 h 3.5 c 0,-0.7 0,-1.3 -0.1,-1.8 -0.4,-3.4 -3.9,-3.5 -6.7,-3.5 -5.4,0 -6.9,1 -6.9,4.7 0,2.3 0.4,3.8 3.4,4.2 1.5,0.1 4.6,0.4 5.9,0.6 1.1,0.1 1.3,0.7 1.3,1.5 0,1.3 -0.6,1.7 -3.4,1.7 -2.7,0 -3.4,-0.4 -3.4,-1.6 v -0.7 h -3.8 v 1 c 0,3 0.9,4.5 6.8,4.5 z"
   style="fill:#ffffff;fill-opacity:1" />
		<path
   id="path32091"
   d="m 55.3,367.4 v -12 h 5.4 v -3.2 H 46.4 v 3.2 h 5.4 v 12 z"
   style="fill:#ffffff;fill-opacity:1" />
		<path
   id="path32093"
   d="m 73.2,361.9 c 0,2.6 -1.9,2.8 -3.7,2.9 -2.9,0 -3.7,-0.8 -3.7,-2.7 v -9.9 h -3.7 v 10.2 c 0,4.6 3.1,5.6 7.4,5.6 3.2,-0.1 7.3,-0.5 7.3,-5.6 v -10.2 h -3.7 z"
   style="fill:#ffffff;fill-opacity:1" />
		<path
   id="path32095"
   d="m 88.4,367.4 c 2.2,0 4.1,-0.9 4.7,-3.1 0.3,-1.1 0.4,-2.9 0.4,-4.6 0,-4.8 -0.9,-7.4 -5.3,-7.4 h -9.1 v 15.1 z m -6,-3.2 v -8.8 h 5.2 c 1.3,0 2.3,0.4 2.3,4.4 0,4.2 -1.1,4.4 -2.3,4.4 z"
   style="fill:#ffffff;fill-opacity:1" />
		<path
   id="path32097"
   d="m 108.1,367.4 v -3.1 h -9.2 v -3.1 h 8.2 v -3 h -8.2 v -2.8 h 8.8 v -3.2 H 95.4 v 15.1 z"
   style="fill:#ffffff;fill-opacity:1" />
		<path
   id="path32099"
   d="m 123.8,367.4 v -15.2 h -3.4 v 7.1 c 0,0.3 0.1,4.3 0.1,4.5 0,0.1 0,0.2 0,0.2 0,0 -1.9,-4.2 -2.1,-4.4 -0.3,-0.4 -3.8,-7.4 -3.8,-7.4 h -5 v 15.1 h 3.4 v -6.9 c 0,-0.3 -0.1,-4.7 -0.1,-5 0,-0.1 0.1,0.2 0.1,0.2 0,0 2,4.5 2.1,4.7 0.3,0.4 3.6,7 3.6,7 z"
   style="fill:#ffffff;fill-opacity:1" />
		<path
   id="path32101"
   d="m 134.2,367.4 v -12 h 5.4 v -3.2 h -14.4 v 3.2 h 5.4 v 12 z"
   style="fill:#ffffff;fill-opacity:1" />
		<path
   id="path32103"
   d="m 156.5,367.4 c 2.1,0 4.4,-0.7 4.6,-2.9 0.1,-0.4 0.1,-0.9 0.1,-1.3 0,-0.5 0,-1 -0.1,-1.5 -0.2,-1 -1.1,-2.1 -2.5,-2.2 1.9,-0.3 2,-2.1 2,-3.5 0,-0.5 0,-1 -0.1,-1.4 -0.3,-1.8 -2.2,-2.3 -3.8,-2.3 h -9.1 v 15.1 z m -1,-12.2 c 1.6,0 1.6,0.8 1.6,1.5 0,0.9 -0.1,1.5 -1.6,1.5 h -4.6 v -3 z m 0.4,6 c 1.7,0 1.8,0.6 1.9,1.7 0,1.3 -0.6,1.6 -1.8,1.6 h -5.1 v -3.3 z"
   style="fill:#ffffff;fill-opacity:1" />
		<path
   id="path32105"
   d="m 177.3,367.5 c -0.2,-1.2 -0.7,-3.2 -1.1,-4.6 -0.1,-0.4 -0.4,-1.4 -1.6,-1.8 1.9,-0.7 1.9,-3.4 1.9,-4.2 0,-1.9 -0.1,-4.6 -4.7,-4.6 h -8.9 v 15.2 h 3.5 V 362 h 4.4 c 0.9,0 1.6,0.2 2,1.5 0.3,1.2 0.7,2.8 0.9,3.9 z m -6.1,-12.1 c 1.7,0 1.9,0.7 1.9,1.6 0,1.8 -0.8,1.9 -2,1.9 h -4.6 v -3.6 h 4.7 z"
   style="fill:#ffffff;fill-opacity:1" />
		<path
   id="path32107"
   d="m 193.4,359.7 c -0.1,-5.8 -0.5,-7.4 -5.1,-7.7 -0.6,0 -1.3,-0.1 -2.2,-0.1 -6.5,0 -7.9,0.4 -7.9,8 0,7.4 1.6,7.8 7.7,7.8 6.9,0.1 7.5,-1.5 7.5,-8 z m -7.3,-4.6 c 3.2,0 3.8,0.2 3.8,4.9 0,4.2 0,4.7 -4.1,4.7 -3.7,0 -4,-0.4 -4,-4.8 0,-4.3 0.2,-4.8 3.8,-4.8 z"
   style="fill:#ffffff;fill-opacity:1" />
		<path
   id="path32109"
   d="m 210.7,367.4 -6.1,-15.1 h -3.9 l -6.2,15.1 h 3.8 l 1,-2.6 h 6.6 l 1,2.6 z m -5.8,-5.7 h -4.6 l 2.3,-5.9 z"
   style="fill:#ffffff;fill-opacity:1" />
		<path
   id="path32111"
   d="m 221.4,367.4 c 2.2,0 4.1,-0.9 4.7,-3.1 0.3,-1.1 0.4,-2.9 0.4,-4.6 0,-4.8 -0.9,-7.4 -5.3,-7.4 h -9.1 v 15.1 z m -6,-3.2 v -8.8 h 5.2 c 1.3,0 2.3,0.4 2.3,4.4 0,4.2 -1.1,4.4 -2.3,4.4 z"
   style="fill:#ffffff;fill-opacity:1" />
		<path
   id="path32113"
   d="m 239.3,361.4 c 0,2.8 -0.5,3.3 -3.9,3.3 -3.8,0 -3.8,-0.6 -3.9,-4.8 0,-4.2 0.3,-4.8 3.8,-4.8 h 0.4 c 2.3,0 3.4,0.3 3.5,2 v 0.7 h 3.6 c 0,-5.4 -2.1,-5.8 -7.1,-5.8 -6.5,0 -7.8,0.6 -7.8,8 0,7.3 1.5,7.8 7.7,7.8 5.2,0 6.8,-0.9 7.2,-4.7 0,-0.4 0,-1.2 0,-1.6 h -3.5 z"
   style="fill:#ffffff;fill-opacity:1" />
		<path
   id="path32115"
   d="M 260.1,367.4 254,352.3 h -4 l -6.2,15.1 h 3.8 l 1,-2.6 h 6.6 l 1,2.6 z m -5.9,-5.7 h -4.6 l 2.3,-5.9 z"
   style="fill:#ffffff;fill-opacity:1" />
		<path
   id="path32117"
   d="m 268.1,367.8 c 5.9,0 6.9,-1.5 6.9,-4.8 0,-3 -1,-4.1 -4.1,-4.5 -1.6,-0.2 -4.1,-0.4 -5.2,-0.5 -1.2,-0.2 -1.5,-0.2 -1.5,-1.4 0,-0.2 0,-0.4 0.1,-0.5 0.4,-0.8 1.2,-0.9 3.5,-0.9 3.1,0 3.2,0.5 3.2,2.1 h 3.5 c 0,-0.7 0,-1.3 -0.1,-1.8 -0.4,-3.4 -3.9,-3.5 -6.7,-3.5 -5.4,0 -6.9,1 -6.9,4.7 0,2.3 0.4,3.8 3.4,4.2 1.5,0.1 4.6,0.4 5.9,0.6 1.1,0.1 1.3,0.7 1.3,1.5 0,1.3 -0.6,1.7 -3.4,1.7 -2.7,0 -3.4,-0.4 -3.4,-1.6 v -0.7 h -3.8 v 1 c 0,3 0.9,4.5 6.8,4.5 z"
   style="fill:#ffffff;fill-opacity:1" />
		<path
   id="path32119"
   d="m 285,367.4 v -12 h 5.4 v -3.2 H 276 v 3.2 h 5.4 v 12 z"
   style="fill:#ffffff;fill-opacity:1" />
		<path
   id="path32121"
   d="M 295.6,367.4 V 352.2 H 292 v 15.2 z"
   style="fill:#ffffff;fill-opacity:1" />
		<path
   id="path32123"
   d="m 312.2,367.4 v -15.2 h -3.4 v 7.1 c 0,0.3 0.1,4.3 0.1,4.5 0,0.1 0,0.2 0,0.2 0,0 -1.9,-4.2 -2.1,-4.4 -0.3,-0.4 -3.8,-7.4 -3.8,-7.4 h -5 v 15.1 h 3.4 v -6.9 c 0,-0.3 -0.1,-4.7 -0.1,-5 0,-0.1 0.1,0.2 0.1,0.2 0,0 2,4.5 2.1,4.7 0.3,0.4 3.6,7 3.6,7 z"
   style="fill:#ffffff;fill-opacity:1" />
		<path
   id="path32125"
   d="m 328.9,358.9 h -8 v 2.8 h 4.6 c 0,2.5 -0.4,3.1 -4,3.1 -3.9,0 -4,-0.4 -4.1,-4.9 0,-4.4 0.4,-4.9 3.8,-4.9 h 0.4 c 2.5,0 3.5,0.3 3.6,2.1 0,0.1 0,0.3 0,0.4 h 3.5 c 0,-4.9 -2.1,-5.5 -7.1,-5.5 -6.4,0 -7.8,0.5 -7.8,8 0,7.4 1.6,7.8 7.7,7.8 6.7,0 7.3,-1.7 7.3,-7.5 z"
   style="fill:#ffffff;fill-opacity:1" />
		<path
   id="path32127"
   d="m 349,361.6 v -3 h -8.2 v -3.2 h 8.8 v -3.2 h -12.3 v 15.1 h 3.5 v -5.8 h 8.2 z"
   style="fill:#ffffff;fill-opacity:1" />
		<path
   id="path32129"
   d="m 364.1,367.4 v -3.1 h -9.2 v -3.1 h 8.2 v -3 h -8.2 v -2.8 h 8.8 v -3.2 h -12.3 v 15.1 z"
   style="fill:#ffffff;fill-opacity:1" />
		<path
   id="path32131"
   d="m 375,367.4 c 2.2,0 4.1,-0.9 4.7,-3.1 0.3,-1.1 0.4,-2.9 0.4,-4.6 0,-4.8 -0.9,-7.4 -5.3,-7.4 h -9.1 v 15.1 z m -5.9,-3.2 v -8.8 h 5.2 c 1.3,0 2.3,0.4 2.3,4.4 0,4.2 -1.1,4.4 -2.3,4.4 z"
   style="fill:#ffffff;fill-opacity:1" />
		<path
   id="path32133"
   d="m 394.7,367.4 v -3.1 h -9.2 v -3.1 h 8.2 v -3 h -8.2 v -2.8 h 8.8 v -3.2 H 382 v 15.1 z"
   style="fill:#ffffff;fill-opacity:1" />
		<path
   id="path32135"
   d="m 410.7,367.5 c -0.2,-1.2 -0.7,-3.2 -1.1,-4.6 -0.1,-0.4 -0.4,-1.4 -1.6,-1.8 1.9,-0.7 1.9,-3.4 1.9,-4.2 0,-1.9 -0.1,-4.6 -4.7,-4.6 h -8.9 v 15.2 h 3.5 V 362 h 4.4 c 0.9,0 1.6,0.2 2,1.5 0.3,1.2 0.7,2.8 0.9,3.9 z m -6.2,-12.1 c 1.7,0 1.9,0.7 1.9,1.6 0,1.8 -0.8,1.9 -2,1.9 h -4.6 v -3.6 h 4.7 z"
   style="fill:#ffffff;fill-opacity:1" />
		<path
   id="path32137"
   d="m 427.4,367.4 -6.1,-15.1 h -3.9 l -6.2,15.1 h 3.8 l 1,-2.6 h 6.6 l 1,2.6 z m -5.9,-5.7 h -4.6 l 2.3,-5.9 z"
   style="fill:#ffffff;fill-opacity:1" />
		<path
   id="path32139"
   d="m 436.9,367.4 v -12 h 5.4 v -3.2 h -14.4 v 3.2 h 5.4 v 12 z"
   style="fill:#ffffff;fill-opacity:1" />
		<path
   id="path32141"
   d="m 447.5,367.4 v -15.2 h -3.6 v 15.2 z"
   style="fill:#ffffff;fill-opacity:1" />
		<path
   id="path32143"
   d="m 464.6,359.7 c -0.1,-5.8 -0.5,-7.4 -5.1,-7.7 -0.6,0 -1.3,-0.1 -2.2,-0.1 -6.5,0 -7.9,0.4 -7.9,8 0,7.4 1.6,7.8 7.7,7.8 7,0.1 7.5,-1.5 7.5,-8 z m -7.3,-4.6 c 3.2,0 3.8,0.2 3.8,4.9 0,4.2 0,4.7 -4.1,4.7 -3.7,0 -4,-0.4 -4,-4.8 0,-4.3 0.2,-4.8 3.8,-4.8 z"
   style="fill:#ffffff;fill-opacity:1" />
		<path
   id="path32145"
   d="m 480.7,367.4 v -15.2 h -3.4 v 7.1 c 0,0.3 0.1,4.3 0.1,4.5 0,0.1 0,0.2 0,0.2 0,0 -1.9,-4.2 -2.1,-4.4 -0.3,-0.4 -3.8,-7.4 -3.8,-7.4 h -5 v 15.1 h 3.4 v -6.9 c 0,-0.3 -0.1,-4.7 -0.1,-5 0,-0.1 0.1,0.2 0.1,0.2 0,0 2,4.5 2.1,4.7 0.3,0.4 3.6,7 3.6,7 z"
   style="fill:#ffffff;fill-opacity:1" />
	</g>
</g>
</svg>
