<?xml version="1.0" encoding="utf-8"?>
<!-- Generator: Adobe Illustrator 27.4.0, SVG Export Plug-In . SVG Version: 6.00 Build 0)  -->
<svg version="1.1" id="レイヤー_1" xmlns="http://www.w3.org/2000/svg" xmlns:xlink="http://www.w3.org/1999/xlink" x="0px"
	 y="0px" viewBox="0 0 247.9 247.9" style="enable-background:new 0 0 247.9 247.9;" xml:space="preserve">
<style type="text/css">
	.st0{fill:#03A9F4;}
</style>
<path class="st0" d="M204.7,73.9c-5.9,2.6-12.3,4.4-19.1,5.2c6.8-4.1,12.1-10.6,14.6-18.2c-6.4,3.8-13.5,6.5-21.1,8
	c-6-6.4-14.6-10.4-24.2-10.4c-18.3,0-33.2,14.7-33.2,32.9c0,2.6,0.3,5.1,0.9,7.5c-27.5-1.4-52-14.5-68.3-34.3
	C51.5,69.3,49.9,75,49.9,81c0,11.4,5.8,21.4,14.7,27.4c-5.4-0.2-10.6-1.7-15-4.1c0,0.1,0,0.2,0,0.4c0,15.9,11.4,29.2,26.6,32.2
	c-2.8,0.8-5.7,1.2-8.7,1.2c-2.1,0-4.2-0.2-6.2-0.6c4.2,13,16.5,22.5,31,22.8c-11.3,8.8-25.6,14.1-41.2,14.1c-2.7,0-5.3-0.2-7.9-0.5
	c14.7,9.3,32.1,14.7,50.8,14.7c61,0,94.3-50.1,94.3-93.5c0-1.4,0-2.8-0.1-4.2C194.7,86.3,200.3,80.5,204.7,73.9"/>
</svg>
