<?xml version="1.0" encoding="utf-8"?>
<!-- Generator: Adobe Illustrator 27.4.0, SVG Export Plug-In . SVG Version: 6.00 Build 0)  -->
<svg version="1.1" id="レイヤー_1" xmlns="http://www.w3.org/2000/svg" xmlns:xlink="http://www.w3.org/1999/xlink" x="0px"
	 y="0px" viewBox="0 0 247.9 247.9" style="enable-background:new 0 0 247.9 247.9;" xml:space="preserve">
<style type="text/css">
	.st0{fill:#FFFFFF;}
	.st1{fill:#212121;}
</style>
<g transform="matrix(5.715038, 0, 0, 5.715038, 409.288757, 277.787231)">
	<g>
		<path class="st0" d="M-36.2-33.8c-0.3-1.2-1.3-2.2-2.5-2.5c-2.2-0.6-11.2-0.6-11.2-0.6s-8.9,0-11.2,0.6c-1.2,0.3-2.2,1.3-2.5,2.5
			c-0.6,2.2-0.6,6.9-0.6,6.9s0,4.6,0.6,6.9c0.3,1.2,1.3,2.2,2.5,2.5c2.2,0.6,11.2,0.6,11.2,0.6s8.9,0,11.2-0.6
			c1.2-0.3,2.2-1.3,2.5-2.5c0.6-2.2,0.6-6.9,0.6-6.9S-35.6-31.6-36.2-33.8z"/>
		<path class="st1" d="M-52.8-22.6l7.4-4.3l-7.4-4.3V-22.6z"/>
	</g>
</g>
</svg>
